<svg id="Layer_1" data-name="Layer 1" xmlns="http://www.w3.org/2000/svg" xmlns:xlink="http://www.w3.org/1999/xlink" viewBox="0 0 667.78 566.03"><defs><style>.cls-1{fill:#1b0070;}.cls-2,.cls-3,.cls-7{fill:none;stroke-miterlimit:10;}.cls-2{stroke:#000;}.cls-3{stroke:#ff00b9;stroke-width:4px;}.cls-4{fill:#22e56c;}.cls-5{fill:#0d24ff;}.cls-6{fill:url(#radial-gradient);}.cls-7{stroke:#e517ad;stroke-width:3px;opacity:0.57;}</style><radialGradient id="radial-gradient" cx="615.97" cy="278.57" r="351.98" gradientUnits="userSpaceOnUse"><stop offset="0" stop-color="#fff"/><stop offset="0.07" stop-color="#ffdfca"/><stop offset="0.14" stop-color="#ffbf95"/><stop offset="0.22" stop-color="#ffa467"/><stop offset="0.29" stop-color="#ff8e42"/><stop offset="0.37" stop-color="#ff7c25"/><stop offset="0.44" stop-color="#ff7010"/><stop offset="0.51" stop-color="#ff6804"/><stop offset="0.59" stop-color="#f60"/></radialGradient></defs><rect class="cls-1" x="0.05" width="667.6" height="562.54" rx="53.96"/><circle class="cls-2" cx="345.85" cy="219.04" r="158.4"/><polyline class="cls-3" points="3.73 532.74 90.13 241.14 148.45 275.38 187.45 195.78 254.29 136.3 366.61 183.61 515.65 88.99 567.49 126.66 652.14 16.2"/><path class="cls-4" d="M174.2,480.17s201.31-35.12,239.87,117.46c10.91,43.21,31.08,83.6,60.35,117.2,19.5,22.4,37.54,38.5,45.58,38.5H218.92s-44.55-15.62-44.55-49.71S174.2,480.17,174.2,480.17Z" transform="translate(-174.15 -187.3)"/><path class="cls-5" d="M841.89,476.68S640.58,441.56,602,594.14c-10.92,43.21-31.09,83.6-60.35,117.2-19.51,22.4-37.54,38.5-45.59,38.5H797.17s44.56-15.62,44.56-49.71S841.89,476.68,841.89,476.68Z" transform="translate(-174.15 -187.3)"/><path class="cls-6" d="M203.18,743.94c-23.1-13.06-26.33-45.09-6.76-63,47.33-43.36,155.19-154.48,165.18-274.58C374.44,252,520,247.94,520,247.94s147-1.22,158.4,158.4c9.06,126.82,106.87,234.89,146.68,274C840.24,695.16,841,719.6,826.39,735c-8,8.41-20.12,14.84-38.55,14.84H224.15a38.57,38.57,0,0,1-14.89-2.93A55.05,55.05,0,0,1,203.18,743.94Z" transform="translate(-174.15 -187.3)"/><line class="cls-7" x1="0.05" y1="289.38" x2="667.74" y2="289.38"/><line class="cls-7" x1="0.08" y1="331.86" x2="667.78" y2="331.86"/><line class="cls-7" x1="0.08" y1="246.9" x2="667.78" y2="246.9"/><line class="cls-7" x1="0.08" y1="193.62" x2="667.78" y2="193.62"/><line class="cls-7" y1="385.14" x2="667.69" y2="385.14"/><line class="cls-7" x1="0.08" y1="438.42" x2="667.78" y2="438.42"/><line class="cls-7" x1="0.08" y1="491.7" x2="667.78" y2="491.7"/><line class="cls-7" x1="0.08" y1="152.58" x2="667.78" y2="152.58"/></svg>