<svg xmlns="http://www.w3.org/2000/svg" xmlns:xlink="http://www.w3.org/1999/xlink" viewBox="0 0 846.35 613.44"><defs><style>.cls-1{isolation:isolate;}.cls-2{fill:url(#linear-gradient);}.cls-3{fill:url(#linear-gradient-2);}.cls-4{fill:url(#linear-gradient-3);}.cls-5{fill:url(#linear-gradient-4);}.cls-6{fill:url(#linear-gradient-6);}.cls-7{fill:url(#linear-gradient-7);}.cls-8{fill:url(#linear-gradient-9);}.cls-9{fill:url(#linear-gradient-11);}.cls-10{mix-blend-mode:multiply;}.cls-11{fill:url(#linear-gradient-12);}.cls-12{fill:url(#linear-gradient-13);}.cls-13{fill:url(#linear-gradient-14);}.cls-14{fill:url(#linear-gradient-15);}.cls-15{fill:url(#linear-gradient-17);}.cls-16{fill:url(#linear-gradient-18);}.cls-17{fill:url(#linear-gradient-19);}.cls-18{fill:url(#linear-gradient-20);}.cls-19{fill:url(#linear-gradient-21);}.cls-20{fill:url(#linear-gradient-22);}.cls-21{fill:url(#linear-gradient-23);}</style><linearGradient id="linear-gradient" x1="272.34" y1="607.21" x2="522.69" y2="388.16" gradientUnits="userSpaceOnUse"><stop offset="0" stop-color="#2a3280"/><stop offset="0.54" stop-color="#3b82a6"/><stop offset="1" stop-color="#49c1c4"/></linearGradient><linearGradient id="linear-gradient-2" x1="393.48" y1="510.93" x2="394.21" y2="510.93" gradientUnits="userSpaceOnUse"><stop offset="0" stop-color="#2a3280"/><stop offset="0.04" stop-color="#2f4b8c"/><stop offset="0.1" stop-color="#366a9b"/><stop offset="0.16" stop-color="#3c86a8"/><stop offset="0.24" stop-color="#419cb2"/><stop offset="0.32" stop-color="#45adba"/><stop offset="0.43" stop-color="#47b8c0"/><stop offset="0.58" stop-color="#49bfc3"/><stop offset="1" stop-color="#49c1c4"/></linearGradient><linearGradient id="linear-gradient-3" x1="597.3" y1="506" x2="604.97" y2="506" xlink:href="#linear-gradient-2"/><linearGradient id="linear-gradient-4" x1="76.82" y1="708.57" x2="500" y2="708.57" gradientUnits="userSpaceOnUse"><stop offset="0" stop-color="#2a3280"/><stop offset="1" stop-color="#49c1c4"/></linearGradient><linearGradient id="linear-gradient-6" x1="499.18" y1="687.23" x2="499.9" y2="687.23" xlink:href="#linear-gradient-2"/><linearGradient id="linear-gradient-7" x1="430.72" y1="385.34" x2="797.71" y2="460.44" xlink:href="#linear-gradient-4"/><linearGradient id="linear-gradient-9" x1="499.18" y1="687.23" x2="500.03" y2="687.23" xlink:href="#linear-gradient-2"/><linearGradient id="linear-gradient-11" x1="604.88" y1="684.37" x2="923.18" y2="684.37" xlink:href="#linear-gradient-2"/><linearGradient id="linear-gradient-12" x1="597.3" y1="506" x2="604.97" y2="506" gradientUnits="userSpaceOnUse"><stop offset="0" stop-color="#49c1c4" stop-opacity="0"/><stop offset="0" stop-color="#47b6bf" stop-opacity="0.08"/><stop offset="0" stop-color="#3f93ae" stop-opacity="0.32"/><stop offset="0" stop-color="#3874a0" stop-opacity="0.54"/><stop offset="0" stop-color="#335c94" stop-opacity="0.71"/><stop offset="0" stop-color="#2f498b" stop-opacity="0.84"/><stop offset="0" stop-color="#2c3c85" stop-opacity="0.93"/><stop offset="0" stop-color="#2a3481" stop-opacity="0.99"/><stop offset="0" stop-color="#2a3280"/></linearGradient><linearGradient id="linear-gradient-13" x1="394.21" y1="796.31" x2="711.59" y2="796.31" xlink:href="#linear-gradient-2"/><linearGradient id="linear-gradient-14" x1="500" y1="610.91" x2="711.46" y2="610.91" gradientUnits="userSpaceOnUse"><stop offset="0.39" stop-color="#2a3280"/><stop offset="0.53" stop-color="#304f8e"/><stop offset="0.84" stop-color="#4099b1"/><stop offset="1" stop-color="#49c1c4"/></linearGradient><linearGradient id="linear-gradient-15" x1="393.52" y1="584.92" x2="597.3" y2="584.92" gradientUnits="userSpaceOnUse"><stop offset="0.51" stop-color="#2a3280"/><stop offset="0.59" stop-color="#2b3782"/><stop offset="0.67" stop-color="#2e4489"/><stop offset="0.76" stop-color="#335b93"/><stop offset="0.85" stop-color="#3a7ba3"/><stop offset="0.94" stop-color="#42a3b6"/><stop offset="1" stop-color="#49c1c4"/></linearGradient><linearGradient id="linear-gradient-17" x1="233.4" y1="501.49" x2="566.02" y2="506.6" gradientUnits="userSpaceOnUse"><stop offset="0" stop-color="#2a3280"/><stop offset="0.21" stop-color="#325791" stop-opacity="0.74"/><stop offset="0.57" stop-color="#3e90ad" stop-opacity="0.34"/><stop offset="0.85" stop-color="#46b4be" stop-opacity="0.09"/><stop offset="1" stop-color="#49c1c4" stop-opacity="0"/></linearGradient><linearGradient id="linear-gradient-18" x1="434.09" y1="386.03" x2="801.07" y2="461.13" gradientUnits="userSpaceOnUse"><stop offset="0.31" stop-color="#2a3280"/><stop offset="0.42" stop-color="#2b3782" stop-opacity="0.96"/><stop offset="0.55" stop-color="#2e468a" stop-opacity="0.86"/><stop offset="0.68" stop-color="#345f96" stop-opacity="0.68"/><stop offset="0.81" stop-color="#3b82a6" stop-opacity="0.44"/><stop offset="0.95" stop-color="#45afbb" stop-opacity="0.13"/><stop offset="1" stop-color="#49c1c4" stop-opacity="0"/></linearGradient><linearGradient id="linear-gradient-19" x1="604.88" y1="684.37" x2="923.18" y2="684.37" gradientUnits="userSpaceOnUse"><stop offset="0" stop-color="#2a3280"/><stop offset="0.21" stop-color="#2b3682" stop-opacity="0.97"/><stop offset="0.38" stop-color="#2d4187" stop-opacity="0.89"/><stop offset="0.54" stop-color="#325591" stop-opacity="0.76"/><stop offset="0.7" stop-color="#38719e" stop-opacity="0.56"/><stop offset="0.85" stop-color="#3f94af" stop-opacity="0.31"/><stop offset="0.99" stop-color="#49bfc3" stop-opacity="0.01"/><stop offset="1" stop-color="#49c1c4" stop-opacity="0"/></linearGradient><linearGradient id="linear-gradient-20" x1="394.21" y1="796.31" x2="711.59" y2="796.31" gradientUnits="userSpaceOnUse"><stop offset="0.5" stop-color="#2a3280"/><stop offset="0.58" stop-color="#2b3883" stop-opacity="0.96"/><stop offset="0.67" stop-color="#2f4a8b" stop-opacity="0.83"/><stop offset="0.77" stop-color="#356799" stop-opacity="0.63"/><stop offset="0.89" stop-color="#3e90ad" stop-opacity="0.35"/><stop offset="1" stop-color="#49c1c4" stop-opacity="0"/></linearGradient><linearGradient id="linear-gradient-21" x1="500" y1="610.91" x2="711.46" y2="610.91" gradientUnits="userSpaceOnUse"><stop offset="0.26" stop-color="#2a3280"/><stop offset="0.56" stop-color="#38729f" stop-opacity="0.55"/><stop offset="0.86" stop-color="#44abba" stop-opacity="0.15"/><stop offset="1" stop-color="#49c1c4" stop-opacity="0"/></linearGradient><linearGradient id="linear-gradient-22" x1="393.52" y1="584.92" x2="597.3" y2="584.92" gradientUnits="userSpaceOnUse"><stop offset="1" stop-color="#2a3280"/><stop offset="1" stop-color="#2a3481" stop-opacity="0.99"/><stop offset="1" stop-color="#2c3c85" stop-opacity="0.93"/><stop offset="1" stop-color="#2f498b" stop-opacity="0.84"/><stop offset="1" stop-color="#335c94" stop-opacity="0.71"/><stop offset="1" stop-color="#3874a0" stop-opacity="0.54"/><stop offset="1" stop-color="#3f93ae" stop-opacity="0.32"/><stop offset="1" stop-color="#47b6bf" stop-opacity="0.08"/><stop offset="1" stop-color="#49c1c4" stop-opacity="0"/></linearGradient><linearGradient id="linear-gradient-23" x1="76.82" y1="708.57" x2="500" y2="708.57" gradientUnits="userSpaceOnUse"><stop offset="0.42" stop-color="#2a3280"/><stop offset="0.51" stop-color="#2b3782" stop-opacity="0.96"/><stop offset="0.62" stop-color="#2e468a" stop-opacity="0.86"/><stop offset="0.73" stop-color="#345f95" stop-opacity="0.69"/><stop offset="0.84" stop-color="#3b82a6" stop-opacity="0.44"/><stop offset="0.96" stop-color="#45aebb" stop-opacity="0.13"/><stop offset="1" stop-color="#49c1c4" stop-opacity="0"/></linearGradient></defs><g class="cls-1"><g id="Layer_1" data-name="Layer 1"><path class="cls-2" d="M499.18,687.23A211.59,211.59,0,0,1,181.93,511.34c-.08-2.46-.13-4.92-.13-7.39,0-116.85,94.74-211.59,211.59-211.59a210.55,210.55,0,0,1,105.79,28.31A211.5,211.5,0,0,0,393.39,504q0,3.3.09,6.57c0,.28,0,.55,0,.82A211.49,211.49,0,0,0,499.18,687.23Z" transform="translate(-76.82 -292.36)"/><path class="cls-3" d="M393.48,510.52c0,.28,0,.55,0,.82l.69-.41Z" transform="translate(-76.82 -292.36)"/><path class="cls-4" d="M605,501.59q-3.88,2.25-7.66,4.69c2.56,1.33,5.08,2.7,7.58,4.13q.09-3.23.09-6.46C605,503.16,605,502.37,605,501.59Z" transform="translate(-76.82 -292.36)"/><path class="cls-5" d="M499.9,687.64l-.72-.41A211.59,211.59,0,0,1,181.93,511.34,211.53,211.53,0,0,0,76.82,694.21c0,116.85,94.74,211.59,211.59,211.59A211.49,211.49,0,0,0,500,694.21Q500,690.91,499.9,687.64Z" transform="translate(-76.82 -292.36)"/><path class="cls-3" d="M393.52,511.34l.69-.41-.73-.41C393.5,510.8,393.5,511.07,393.52,511.34Z" transform="translate(-76.82 -292.36)"/><path class="cls-6" d="M499.87,686.82l-.69.41.72.41C499.89,687.36,499.89,687.09,499.87,686.82Z" transform="translate(-76.82 -292.36)"/><path d="M499.87,686.82l-.69.41.72.41c0-.28,0-.55,0-.82Z" transform="translate(-76.82 -292.36)"/><path class="cls-7" d="M605,292.36A211.49,211.49,0,0,0,393.39,504q0,3.3.09,6.57l.73.41a211.86,211.86,0,0,1,203.09-4.65q3.76-2.44,7.66-4.69a211.78,211.78,0,0,1,211.57-1C814.76,385.29,720.71,292.36,605,292.36Z" transform="translate(-76.82 -292.36)"/><path class="cls-3" d="M393.52,511.34l.69-.41-.73-.41C393.5,510.8,393.5,511.07,393.52,511.34Z" transform="translate(-76.82 -292.36)"/><path class="cls-8" d="M500,686.73l-.15.09-.69.41.72.41a.91.91,0,0,0,.13.08C500,687.39,500,687.06,500,686.73Z" transform="translate(-76.82 -292.36)"/><path d="M500,686.73l-.15.09-.69.41.72.41a.91.91,0,0,0,.13.08c0-.33,0-.66,0-1Z" transform="translate(-76.82 -292.36)"/><path class="cls-4" d="M605,501.59q-3.88,2.25-7.66,4.69c2.56,1.33,5.08,2.7,7.58,4.13q.09-3.23.09-6.46C605,503.16,605,502.37,605,501.59Z" transform="translate(-76.82 -292.36)"/><path class="cls-9" d="M816.53,500.6a211.78,211.78,0,0,0-211.57,1c0,.78,0,1.57,0,2.36q0,3.24-.09,6.46A211.55,211.55,0,0,1,711.46,686.82c.08,2.46.13,4.92.13,7.39a211.48,211.48,0,0,1-97.3,178.1A210.8,210.8,0,0,0,711.59,896c116.85,0,211.59-94.74,211.59-211.59A211.55,211.55,0,0,0,816.53,500.6Z" transform="translate(-76.82 -292.36)"/><g class="cls-10"><path class="cls-11" d="M605,501.59q-3.88,2.25-7.66,4.69c2.56,1.33,5.08,2.7,7.58,4.13q.09-3.23.09-6.46C605,503.16,605,502.37,605,501.59Z" transform="translate(-76.82 -292.36)"/></g><path class="cls-12" d="M711.46,686.82a211.81,211.81,0,0,1-211.43.9.91.91,0,0,1-.13-.08q.11,3.27.1,6.57A211.52,211.52,0,0,1,394.21,877.49,211.59,211.59,0,0,0,711.59,694.21C711.59,691.74,711.54,689.28,711.46,686.82Z" transform="translate(-76.82 -292.36)"/><path class="cls-13" d="M604.88,510.41c-2.5-1.43-5-2.8-7.58-4.13A211.43,211.43,0,0,0,500,684.37c0,.79,0,1.58,0,2.36,0,.33,0,.66,0,1a211.81,211.81,0,0,0,211.43-.9A211.55,211.55,0,0,0,604.88,510.41Z" transform="translate(-76.82 -292.36)"/><path class="cls-14" d="M597.3,506.28a211.86,211.86,0,0,0-203.09,4.65l-.69.41A211.49,211.49,0,0,0,499.18,687.23l.69-.41.15-.09c0-.78,0-1.57,0-2.36A211.43,211.43,0,0,1,597.3,506.28Z" transform="translate(-76.82 -292.36)"/><path class="cls-8" d="M500,686.73l-.15.09-.69.41.72.41a.91.91,0,0,0,.13.08C500,687.39,500,687.06,500,686.73Z" transform="translate(-76.82 -292.36)"/><path d="M500,686.73l-.15.09-.69.41.72.41a.91.91,0,0,0,.13.08c0-.33,0-.66,0-1Z" transform="translate(-76.82 -292.36)"/><g class="cls-10"><path class="cls-15" d="M499.18,687.23A211.59,211.59,0,0,1,181.93,511.34c-.08-2.46-.13-4.92-.13-7.39,0-116.85,94.74-211.59,211.59-211.59a210.55,210.55,0,0,1,105.79,28.31A211.5,211.5,0,0,0,393.39,504q0,3.3.09,6.57c0,.28,0,.55,0,.82A211.49,211.49,0,0,0,499.18,687.23Z" transform="translate(-76.82 -292.36)"/></g><g class="cls-10"><path class="cls-16" d="M605,292.36A211.49,211.49,0,0,0,393.39,504q0,3.3.09,6.57l.73.41a211.86,211.86,0,0,1,203.09-4.65q3.76-2.44,7.66-4.69a211.78,211.78,0,0,1,211.57-1C814.76,385.29,720.71,292.36,605,292.36Z" transform="translate(-76.82 -292.36)"/></g><g class="cls-10"><path class="cls-17" d="M816.53,500.6a211.78,211.78,0,0,0-211.57,1c0,.78,0,1.57,0,2.36q0,3.24-.09,6.46A211.55,211.55,0,0,1,711.46,686.82c.08,2.46.13,4.92.13,7.39a211.48,211.48,0,0,1-97.3,178.1A210.8,210.8,0,0,0,711.59,896c116.85,0,211.59-94.74,211.59-211.59A211.55,211.55,0,0,0,816.53,500.6Z" transform="translate(-76.82 -292.36)"/></g><g class="cls-10"><path class="cls-18" d="M711.46,686.82a211.81,211.81,0,0,1-211.43.9.91.91,0,0,1-.13-.08q.11,3.27.1,6.57A211.52,211.52,0,0,1,394.21,877.49,211.59,211.59,0,0,0,711.59,694.21C711.59,691.74,711.54,689.28,711.46,686.82Z" transform="translate(-76.82 -292.36)"/></g><g class="cls-10"><path class="cls-19" d="M604.88,510.41c-2.5-1.43-5-2.8-7.58-4.13A211.43,211.43,0,0,0,500,684.37c0,.79,0,1.58,0,2.36,0,.33,0,.66,0,1a211.81,211.81,0,0,0,211.43-.9A211.55,211.55,0,0,0,604.88,510.41Z" transform="translate(-76.82 -292.36)"/></g><g class="cls-10"><path class="cls-20" d="M597.3,506.28a211.86,211.86,0,0,0-203.09,4.65l-.69.41A211.49,211.49,0,0,0,499.18,687.23l.69-.41.15-.09c0-.78,0-1.57,0-2.36A211.43,211.43,0,0,1,597.3,506.28Z" transform="translate(-76.82 -292.36)"/></g><g class="cls-10"><path class="cls-21" d="M499.9,687.64l-.72-.41A211.59,211.59,0,0,1,181.93,511.34,211.53,211.53,0,0,0,76.82,694.21c0,116.85,94.74,211.59,211.59,211.59A211.49,211.49,0,0,0,500,694.21Q500,690.91,499.9,687.64Z" transform="translate(-76.82 -292.36)"/></g></g></g></svg>