<svg id="Layer_1" data-name="Layer 1" xmlns="http://www.w3.org/2000/svg" xmlns:xlink="http://www.w3.org/1999/xlink" viewBox="0 0 890.53 884.27"><defs><style>.cls-1{fill:url(#radial-gradient);}.cls-2,.cls-4{fill:none;stroke-miterlimit:10;}.cls-2{stroke:#0dddfd;stroke-width:3px;}.cls-3{fill:url(#linear-gradient);}.cls-4{stroke:#f06;stroke-width:5px;}</style><radialGradient id="radial-gradient" cx="350.32" cy="354.46" fx="223.85226048280333" fy="324.2994511890691" r="899.32" gradientUnits="userSpaceOnUse"><stop offset="0" stop-color="#ff7000"/><stop offset="0.11" stop-color="#ec5736"/><stop offset="0.27" stop-color="#d53878"/><stop offset="0.4" stop-color="#c220ab"/><stop offset="0.52" stop-color="#b50fd1"/><stop offset="0.62" stop-color="#ad04e8"/><stop offset="0.68" stop-color="#aa00f0"/></radialGradient><linearGradient id="linear-gradient" x1="443.15" y1="-32.51" x2="443.15" y2="492.26" gradientUnits="userSpaceOnUse"><stop offset="0" stop-color="#f80c96"/><stop offset="0.61" stop-color="#fe5a14"/><stop offset="0.7" stop-color="#f60"/><stop offset="0.75" stop-color="#ff7a00"/><stop offset="0.86" stop-color="#ffaf00"/><stop offset="1" stop-color="#ff0"/></linearGradient></defs><rect class="cls-1" x="1.02" width="884.27" height="884.27" rx="53.96"/><path class="cls-2" d="M366.42,408.23H635.65a67.31,67.31,0,0,1,58,33.13L922.67,830a122.38,122.38,0,0,1,14.39,88.87c-5.79,25.75-17.88,43-48.88,43H109c-28.65,0-44.74-18.81-50.78-43-5.41-21.59-1.69-44.46,9.5-63.7L308.24,441.69A67.3,67.3,0,0,1,366.42,408.23Z" transform="translate(-54.23 -79.81)"/><line class="cls-2" x1="68.9" y1="680.09" x2="827.13" y2="680.09"/><line class="cls-2" x1="141.25" y1="555.71" x2="753.83" y2="555.71"/><line class="cls-2" x1="190.29" y1="471.42" x2="704.15" y2="471.42"/><line class="cls-2" x1="225.72" y1="410.52" x2="668.27" y2="410.52"/><line class="cls-2" x1="252.51" y1="364.46" x2="641.13" y2="364.46"/><line class="cls-2" x1="388.95" y1="328.42" x2="282.98" y2="882.07"/><line class="cls-2" x1="331.21" y1="328.42" x2="117.19" y2="882.07"/><line class="cls-2" x1="562.15" y1="328.42" x2="780.36" y2="882.07"/><line class="cls-2" x1="504.41" y1="328.42" x2="614.57" y2="882.07"/><line class="cls-2" x1="446.68" y1="328.42" x2="448.77" y2="882.07"/><circle class="cls-3" cx="443.15" cy="306.75" r="287.05"/><circle class="cls-3" cx="443.15" cy="306.75" r="287.05"/><line class="cls-4" x1="6.26" y1="168.93" x2="890.53" y2="168.93"/><line class="cls-4" x1="1.02" y1="306.75" x2="885.28" y2="306.75"/><line class="cls-4" x1="6.26" y1="444.58" x2="890.53" y2="444.58"/></svg>